<svg version="1.1" xmlns="http://www.w3.org/2000/svg" viewBox="0 0 564.1570199331586 561.58461241093" width="564.1570199331586" height="561.58461241093">
  <!-- svg-source:excalidraw -->
  
  <defs>
    <style class="style-fonts">
      @font-face {
        font-family: sans-serif;
      }
      @font-face {
        font-family: sans-serif;
      }
    </style>
    
  </defs>
  <g stroke-linecap="round" transform="translate(10.53704833984375 10) rotate(0 38.65167236328125 38.65167236328125)"><path d="M0 0 L77.3 0 L77.3 77.3 L0 77.3" stroke="none" stroke-width="0" fill="#a5d8ff"></path><path d="M0 0 C21.97 0, 43.94 0, 77.3 0 M0 0 C15.68 0, 31.36 0, 77.3 0 M77.3 0 C77.3 16.67, 77.3 33.34, 77.3 77.3 M77.3 0 C77.3 23.5, 77.3 47, 77.3 77.3 M77.3 77.3 C55.41 77.3, 33.52 77.3, 0 77.3 M77.3 77.3 C49.79 77.3, 22.28 77.3, 0 77.3 M0 77.3 C0 50.41, 0 23.51, 0 0 M0 77.3 C0 49.72, 0 22.14, 0 0" stroke="#868e96" stroke-width="4" fill="none"></path></g><g transform="translate(39.813720703125 39.05167236328123) rotate(0 9.375 9.599999999999994)"><text x="9.375" y="0" font-family="sans-serif, Segoe UI Emoji" font-size="16px" fill="#1e1e1e" text-anchor="middle" style="white-space: pre;" direction="ltr" dominant-baseline="text-before-edge">TL</text></g><g stroke-linecap="round" transform="translate(476.6434936523433 10.406951904296875) rotate(0 38.65167236328125 38.65167236328125)"><path d="M0 0 L77.3 0 L77.3 77.3 L0 77.3" stroke="none" stroke-width="0" fill="#a5d8ff"></path><path d="M0 0 C28.06 0, 56.12 0, 77.3 0 M0 0 C25.01 0, 50.02 0, 77.3 0 M77.3 0 C77.3 15.76, 77.3 31.51, 77.3 77.3 M77.3 0 C77.3 24.3, 77.3 48.6, 77.3 77.3 M77.3 77.3 C60.25 77.3, 43.2 77.3, 0 77.3 M77.3 77.3 C51.13 77.3, 24.96 77.3, 0 77.3 M0 77.3 C0 49.66, 0 22.01, 0 0 M0 77.3 C0 61.46, 0 45.62, 0 0" stroke="#868e96" stroke-width="4" fill="none"></path></g><g transform="translate(505.92016601562455 39.4586242675781) rotate(0 9.375 9.599999999999994)"><text x="9.375" y="0" font-family="sans-serif, Segoe UI Emoji" font-size="16px" fill="#1e1e1e" text-anchor="middle" style="white-space: pre;" direction="ltr" dominant-baseline="text-before-edge">TR</text></g><g stroke-linecap="round" transform="translate(243.59027099609352 10) rotate(0 38.65167236328125 38.65167236328125)"><path d="M0 0 L77.3 0 L77.3 77.3 L0 77.3" stroke="none" stroke-width="0" fill="#ffd43b"></path><path d="M0 0 C30.17 0, 60.34 0, 77.3 0 M0 0 C25.13 0, 50.26 0, 77.3 0 M77.3 0 C77.3 18.38, 77.3 36.76, 77.3 77.3 M77.3 0 C77.3 26.04, 77.3 52.08, 77.3 77.3 M77.3 77.3 C53.12 77.3, 28.94 77.3, 0 77.3 M77.3 77.3 C60.66 77.3, 44.02 77.3, 0 77.3 M0 77.3 C0 52.72, 0 28.15, 0 0 M0 77.3 C0 53.74, 0 30.17, 0 0" stroke="#868e96" stroke-width="4" fill="none"></path></g><g transform="translate(268.1794433593748 39.05167236328123) rotate(0 14.0625 9.599999999999994)"><text x="14.0625" y="0" font-family="sans-serif, Segoe UI Emoji" font-size="16px" fill="#1e1e1e" text-anchor="middle" style="white-space: pre;" direction="ltr" dominant-baseline="text-before-edge">TOP</text></g><g stroke-linecap="round" transform="translate(88.22145589192701 10) rotate(0 38.65167236328125 38.65167236328125)"><path d="M0 0 C16.36 0, 32.73 0, 77.3 0 M0 0 C22.84 0, 45.68 0, 77.3 0 M77.3 0 C77.3 23.85, 77.3 47.71, 77.3 77.3 M77.3 0 C77.3 22.34, 77.3 44.67, 77.3 77.3 M77.3 77.3 C50.53 77.3, 23.76 77.3, 0 77.3 M77.3 77.3 C55.41 77.3, 33.51 77.3, 0 77.3 M0 77.3 C0 57.16, 0 37.02, 0 0 M0 77.3 C0 55.39, 0 33.48, 0 0" stroke="#868e96" stroke-width="4" fill="none"></path></g><g stroke-linecap="round" transform="translate(165.90586344401027 10) rotate(0 38.65167236328125 38.65167236328125)"><path d="M0 0 C24.87 0, 49.75 0, 77.3 0 M0 0 C30.15 0, 60.3 0, 77.3 0 M77.3 0 C77.3 26.03, 77.3 52.07, 77.3 77.3 M77.3 0 C77.3 25.08, 77.3 50.16, 77.3 77.3 M77.3 77.3 C49.24 77.3, 21.18 77.3, 0 77.3 M77.3 77.3 C58.06 77.3, 38.82 77.3, 0 77.3 M0 77.3 C0 53.65, 0 30, 0 0 M0 77.3 C0 54.44, 0 31.58, 0 0" stroke="#868e96" stroke-width="4" fill="none"></path></g><g stroke-linecap="round" transform="translate(321.2746785481768 10) rotate(0 38.65167236328125 38.65167236328125)"><path d="M0 0 C30.53 0, 61.06 0, 77.3 0 M0 0 C19.37 0, 38.74 0, 77.3 0 M77.3 0 C77.3 17.72, 77.3 35.43, 77.3 77.3 M77.3 0 C77.3 24.45, 77.3 48.9, 77.3 77.3 M77.3 77.3 C59.58 77.3, 41.86 77.3, 0 77.3 M77.3 77.3 C48.87 77.3, 20.43 77.3, 0 77.3 M0 77.3 C0 58.82, 0 40.34, 0 0 M0 77.3 C0 46.71, 0 16.11, 0 0" stroke="#868e96" stroke-width="4" fill="none"></path></g><g stroke-linecap="round" transform="translate(398.95908610026004 10) rotate(0 38.65167236328125 38.65167236328125)"><path d="M0 0 C23.51 0, 47.01 0, 77.3 0 M0 0 C16.72 0, 33.44 0, 77.3 0 M77.3 0 C77.3 18.25, 77.3 36.51, 77.3 77.3 M77.3 0 C77.3 23.05, 77.3 46.1, 77.3 77.3 M77.3 77.3 C55.73 77.3, 34.16 77.3, 0 77.3 M77.3 77.3 C49.34 77.3, 21.38 77.3, 0 77.3 M0 77.3 C0 47.62, 0 17.94, 0 0 M0 77.3 C0 47.37, 0 17.45, 0 0" stroke="#868e96" stroke-width="4" fill="none"></path></g><g stroke-linecap="round" transform="translate(10 86.69503784179688) rotate(0 38.65167236328125 38.65167236328125)"><path d="M0 0 C25.53 0, 51.05 0, 77.3 0 M0 0 C20.65 0, 41.31 0, 77.3 0 M77.3 0 C77.3 21, 77.3 42, 77.3 77.3 M77.3 0 C77.3 29.84, 77.3 59.67, 77.3 77.3 M77.3 77.3 C59.48 77.3, 41.65 77.3, 0 77.3 M77.3 77.3 C47.65 77.3, 17.99 77.3, 0 77.3 M0 77.3 C0 57.33, 0 37.35, 0 0 M0 77.3 C0 54.15, 0 30.99, 0 0" stroke="#868e96" stroke-width="4" fill="none"></path></g><g stroke-linecap="round" transform="translate(476.63128662109375 86.69503784179688) rotate(0 38.65167236328125 38.65167236328125)"><path d="M0 0 C24.29 0, 48.58 0, 77.3 0 M0 0 C17.68 0, 35.35 0, 77.3 0 M77.3 0 C77.3 18.65, 77.3 37.3, 77.3 77.3 M77.3 0 C77.3 22.03, 77.3 44.05, 77.3 77.3 M77.3 77.3 C61.6 77.3, 45.9 77.3, 0 77.3 M77.3 77.3 C53.15 77.3, 28.99 77.3, 0 77.3 M0 77.3 C0 52.5, 0 27.7, 0 0 M0 77.3 C0 48.09, 0 18.88, 0 0" stroke="#868e96" stroke-width="4" fill="none"></path></g><g stroke-linecap="round" transform="translate(243.31564331054688 86.69503784179688) rotate(0 38.65167236328125 38.65167236328125)"><path d="M0 0 C29.09 0, 58.18 0, 77.3 0 M0 0 C18.04 0, 36.08 0, 77.3 0 M77.3 0 C77.3 17.83, 77.3 35.66, 77.3 77.3 M77.3 0 C77.3 25.27, 77.3 50.55, 77.3 77.3 M77.3 77.3 C52.47 77.3, 27.63 77.3, 0 77.3 M77.3 77.3 C47.11 77.3, 16.91 77.3, 0 77.3 M0 77.3 C0 61.25, 0 45.19, 0 0 M0 77.3 C0 58.03, 0 38.75, 0 0" stroke="#868e96" stroke-width="4" fill="none"></path></g><g stroke-linecap="round" transform="translate(87.77188110351562 86.69503784179688) rotate(0 38.65167236328125 38.65167236328125)"><path d="M0 0 C24.05 0, 48.1 0, 77.3 0 M0 0 C26.95 0, 53.9 0, 77.3 0 M77.3 0 C77.3 24.12, 77.3 48.25, 77.3 77.3 M77.3 0 C77.3 28.89, 77.3 57.77, 77.3 77.3 M77.3 77.3 C58.66 77.3, 40.02 77.3, 0 77.3 M77.3 77.3 C56.6 77.3, 35.9 77.3, 0 77.3 M0 77.3 C0 56.8, 0 36.3, 0 0 M0 77.3 C0 50.59, 0 23.87, 0 0" stroke="#868e96" stroke-width="4" fill="none"></path></g><g stroke-linecap="round" transform="translate(165.54376220703125 86.69503784179688) rotate(0 38.65167236328125 38.65167236328125)"><path d="M0 0 C24.81 0, 49.63 0, 77.3 0 M0 0 C19.31 0, 38.63 0, 77.3 0 M77.3 0 C77.3 21.96, 77.3 43.92, 77.3 77.3 M77.3 0 C77.3 21.34, 77.3 42.67, 77.3 77.3 M77.3 77.3 C56.91 77.3, 36.51 77.3, 0 77.3 M77.3 77.3 C49.15 77.3, 20.99 77.3, 0 77.3 M0 77.3 C0 61.6, 0 45.9, 0 0 M0 77.3 C0 57.98, 0 38.65, 0 0" stroke="#868e96" stroke-width="4" fill="none"></path></g><g stroke-linecap="round" transform="translate(398.8594055175781 86.69503784179688) rotate(0 38.65167236328125 38.65167236328125)"><path d="M0 0 C28.76 0, 57.52 0, 77.3 0 M0 0 C28.14 0, 56.28 0, 77.3 0 M77.3 0 C77.3 17.61, 77.3 35.22, 77.3 77.3 M77.3 0 C77.3 16.84, 77.3 33.68, 77.3 77.3 M77.3 77.3 C54.74 77.3, 32.18 77.3, 0 77.3 M77.3 77.3 C60.73 77.3, 44.15 77.3, 0 77.3 M0 77.3 C0 57.86, 0 38.41, 0 0 M0 77.3 C0 58.65, 0 39.99, 0 0" stroke="#868e96" stroke-width="4" fill="none"></path></g><g stroke-linecap="round" transform="translate(321.0875244140625 86.69503784179688) rotate(0 38.65167236328125 38.65167236328125)"><path d="M0 0 C27.11 0, 54.21 0, 77.3 0 M0 0 C16.53 0, 33.06 0, 77.3 0 M77.3 0 C77.3 20.37, 77.3 40.74, 77.3 77.3 M77.3 0 C77.3 20.1, 77.3 40.19, 77.3 77.3 M77.3 77.3 C47.52 77.3, 17.74 77.3, 0 77.3 M77.3 77.3 C61 77.3, 44.69 77.3, 0 77.3 M0 77.3 C0 52.81, 0 28.31, 0 0 M0 77.3 C0 58.92, 0 40.54, 0 0" stroke="#868e96" stroke-width="4" fill="none"></path></g><g stroke-linecap="round" transform="translate(10 164.69430541992188) rotate(0 38.65167236328125 38.65167236328125)"><path d="M0 0 C27.55 0, 55.11 0, 77.3 0 M0 0 C29.31 0, 58.62 0, 77.3 0 M77.3 0 C77.3 25.72, 77.3 51.44, 77.3 77.3 M77.3 0 C77.3 15.88, 77.3 31.75, 77.3 77.3 M77.3 77.3 C52.62 77.3, 27.94 77.3, 0 77.3 M77.3 77.3 C47.27 77.3, 17.24 77.3, 0 77.3 M0 77.3 C0 57.67, 0 38.04, 0 0 M0 77.3 C0 57.61, 0 37.92, 0 0" stroke="#868e96" stroke-width="4" fill="none"></path></g><g stroke-linecap="round" transform="translate(476.63128662109375 164.69430541992188) rotate(0 38.65167236328125 38.65167236328125)"><path d="M0 0 C16.24 0, 32.49 0, 77.3 0 M0 0 C25.33 0, 50.65 0, 77.3 0 M77.3 0 C77.3 28.94, 77.3 57.88, 77.3 77.3 M77.3 0 C77.3 20.47, 77.3 40.95, 77.3 77.3 M77.3 77.3 C51.28 77.3, 25.27 77.3, 0 77.3 M77.3 77.3 C52.12 77.3, 26.94 77.3, 0 77.3 M0 77.3 C0 53.21, 0 29.11, 0 0 M0 77.3 C0 53.15, 0 29, 0 0" stroke="#868e96" stroke-width="4" fill="none"></path></g><g stroke-linecap="round" transform="translate(243.31564331054688 164.69430541992188) rotate(0 38.65167236328125 38.65167236328125)"><path d="M0 0 L77.3 0 L77.3 77.3 L0 77.3" stroke="none" stroke-width="0" fill="#ffec99"></path><path d="M0 0 C17.56 0, 35.12 0, 77.3 0 M0 0 C27.18 0, 54.35 0, 77.3 0 M77.3 0 C77.3 28.22, 77.3 56.44, 77.3 77.3 M77.3 0 C77.3 28.2, 77.3 56.4, 77.3 77.3 M77.3 77.3 C50.63 77.3, 23.95 77.3, 0 77.3 M77.3 77.3 C56.33 77.3, 35.36 77.3, 0 77.3 M0 77.3 C0 47.11, 0 16.91, 0 0 M0 77.3 C0 52.72, 0 28.14, 0 0" stroke="#868e96" stroke-width="4" fill="none"></path></g><g transform="translate(272.5923156738281 193.7459777832031) rotate(0 9.375 9.600000000000023)"><text x="9.375" y="0" font-family="sans-serif, Segoe UI Emoji" font-size="16px" fill="#1e1e1e" text-anchor="middle" style="white-space: pre;" direction="ltr" dominant-baseline="text-before-edge">UP</text></g><g stroke-linecap="round" transform="translate(87.77188110351562 164.69430541992188) rotate(0 38.65167236328125 38.65167236328125)"><path d="M0 0 C16.21 0, 32.42 0, 77.3 0 M0 0 C27.82 0, 55.64 0, 77.3 0 M77.3 0 C77.3 16.29, 77.3 32.58, 77.3 77.3 M77.3 0 C77.3 21.17, 77.3 42.35, 77.3 77.3 M77.3 77.3 C55.15 77.3, 33.01 77.3, 0 77.3 M77.3 77.3 C57.65 77.3, 37.99 77.3, 0 77.3 M0 77.3 C0 56.36, 0 35.42, 0 0 M0 77.3 C0 50.74, 0 24.19, 0 0" stroke="#868e96" stroke-width="4" fill="none"></path></g><g stroke-linecap="round" transform="translate(165.54376220703125 164.69430541992188) rotate(0 38.65167236328125 38.65167236328125)"><path d="M0 0 C18.81 0, 37.61 0, 77.3 0 M0 0 C16.12 0, 32.23 0, 77.3 0 M77.3 0 C77.3 28.31, 77.3 56.62, 77.3 77.3 M77.3 0 C77.3 28.69, 77.3 57.38, 77.3 77.3 M77.3 77.3 C51.03 77.3, 24.77 77.3, 0 77.3 M77.3 77.3 C60.6 77.3, 43.9 77.3, 0 77.3 M0 77.3 C0 61.83, 0 46.36, 0 0 M0 77.3 C0 51.27, 0 25.24, 0 0" stroke="#868e96" stroke-width="4" fill="none"></path></g><g stroke-linecap="round" transform="translate(398.8594055175781 164.69430541992188) rotate(0 38.65167236328125 38.65167236328125)"><path d="M0 0 C20.39 0, 40.79 0, 77.3 0 M0 0 C28.86 0, 57.73 0, 77.3 0 M77.3 0 C77.3 27.76, 77.3 55.53, 77.3 77.3 M77.3 0 C77.3 30.71, 77.3 61.42, 77.3 77.3 M77.3 77.3 C53.14 77.3, 28.97 77.3, 0 77.3 M77.3 77.3 C50.46 77.3, 23.61 77.3, 0 77.3 M0 77.3 C0 54.6, 0 31.91, 0 0 M0 77.3 C0 51.28, 0 25.25, 0 0" stroke="#868e96" stroke-width="4" fill="none"></path></g><g stroke-linecap="round" transform="translate(321.0875244140625 164.69430541992188) rotate(0 38.65167236328125 38.65167236328125)"><path d="M0 0 C22.49 0, 44.98 0, 77.3 0 M0 0 C22.19 0, 44.38 0, 77.3 0 M77.3 0 C77.3 29.27, 77.3 58.53, 77.3 77.3 M77.3 0 C77.3 30.42, 77.3 60.84, 77.3 77.3 M77.3 77.3 C49.71 77.3, 22.11 77.3, 0 77.3 M77.3 77.3 C61.52 77.3, 45.73 77.3, 0 77.3 M0 77.3 C0 57.19, 0 37.07, 0 0 M0 77.3 C0 52.51, 0 27.71, 0 0" stroke="#868e96" stroke-width="4" fill="none"></path></g><g stroke-linecap="round" transform="translate(10 242.36080932617188) rotate(0 38.65167236328125 38.65167236328125)"><path d="M0 0 L77.3 0 L77.3 77.3 L0 77.3" stroke="none" stroke-width="0" fill="#ffd43b"></path><path d="M0 0 C16.35 0, 32.71 0, 77.3 0 M0 0 C19.59 0, 39.18 0, 77.3 0 M77.3 0 C77.3 21.04, 77.3 42.08, 77.3 77.3 M77.3 0 C77.3 21.68, 77.3 43.37, 77.3 77.3 M77.3 77.3 C53.54 77.3, 29.77 77.3, 0 77.3 M77.3 77.3 C55.17 77.3, 33.03 77.3, 0 77.3 M0 77.3 C0 46.99, 0 16.67, 0 0 M0 77.3 C0 60.93, 0 44.55, 0 0" stroke="#868e96" stroke-width="4" fill="none"></path></g><g transform="translate(29.90167236328125 271.4124816894531) rotate(0 18.75 9.600000000000023)"><text x="18.75" y="0" font-family="sans-serif, Segoe UI Emoji" font-size="16px" fill="#1e1e1e" text-anchor="middle" style="white-space: pre;" direction="ltr" dominant-baseline="text-before-edge">HOME</text></g><g stroke-linecap="round" transform="translate(476.8536752065961 242.2847982865111) rotate(0 38.65167236328125 38.65167236328125)"><path d="M0 0 L77.3 0 L77.3 77.3 L0 77.3" stroke="none" stroke-width="0" fill="#ffd43b"></path><path d="M0 0 C30.33 0, 60.67 0, 77.3 0 M0 0 C26.5 0, 53 0, 77.3 0 M77.3 0 C77.3 19.43, 77.3 38.87, 77.3 77.3 M77.3 0 C77.3 25.89, 77.3 51.77, 77.3 77.3 M77.3 77.3 C56.78 77.3, 36.25 77.3, 0 77.3 M77.3 77.3 C61.25 77.3, 45.2 77.3, 0 77.3 M0 77.3 C0 61.77, 0 46.23, 0 0 M0 77.3 C0 46.53, 0 15.75, 0 0" stroke="#868e96" stroke-width="4" fill="none"></path></g><g transform="translate(501.44284756987736 271.3364706497923) rotate(0 14.0625 9.600000000000023)"><text x="14.0625" y="0" font-family="sans-serif, Segoe UI Emoji" font-size="16px" fill="#1e1e1e" text-anchor="middle" style="white-space: pre;" direction="ltr" dominant-baseline="text-before-edge">END</text></g><g stroke-linecap="round" transform="translate(243.31564331054688 242.36080932617188) rotate(0 38.65167236328125 38.65167236328125)"><path d="M0 0 L77.3 0 L77.3 77.3 L0 77.3" stroke="none" stroke-width="0" fill="#38d9a9"></path><path d="M0 0 C21.03 0, 42.05 0, 77.3 0 M0 0 C21.31 0, 42.63 0, 77.3 0 M77.3 0 C77.3 28.07, 77.3 56.14, 77.3 77.3 M77.3 0 C77.3 28.1, 77.3 56.19, 77.3 77.3 M77.3 77.3 C60.69 77.3, 44.07 77.3, 0 77.3 M77.3 77.3 C55.01 77.3, 32.72 77.3, 0 77.3 M0 77.3 C0 50.19, 0 23.07, 0 0 M0 77.3 C0 56.59, 0 35.87, 0 0" stroke="#868e96" stroke-width="4" fill="none"></path></g><g transform="translate(273.7641906738281 264.21248168945317) rotate(0 8.203125 16.80000000000001)"><text x="8.203125" y="0" font-family="sans-serif, Segoe UI Emoji" font-size="28px" fill="#1e1e1e" text-anchor="middle" style="white-space: pre;" direction="ltr" dominant-baseline="text-before-edge">X</text></g><g stroke-linecap="round" transform="translate(87.77188110351562 242.36080932617188) rotate(0 38.65167236328125 38.65167236328125)"><path d="M0 0 C20.53 0, 41.05 0, 77.3 0 M0 0 C16.05 0, 32.1 0, 77.3 0 M77.3 0 C77.3 15.54, 77.3 31.07, 77.3 77.3 M77.3 0 C77.3 30.78, 77.3 61.55, 77.3 77.3 M77.3 77.3 C58.19 77.3, 39.08 77.3, 0 77.3 M77.3 77.3 C55.22 77.3, 33.13 77.3, 0 77.3 M0 77.3 C0 59.09, 0 40.87, 0 0 M0 77.3 C0 56.16, 0 35.01, 0 0" stroke="#868e96" stroke-width="4" fill="none"></path></g><g stroke-linecap="round" transform="translate(165.54376220703125 242.36080932617188) rotate(0 38.65167236328125 38.65167236328125)"><path d="M0 0 L77.3 0 L77.3 77.3 L0 77.3" stroke="none" stroke-width="0" fill="#ffec99"></path><path d="M0 0 C20.19 0, 40.39 0, 77.3 0 M0 0 C26.26 0, 52.52 0, 77.3 0 M77.3 0 C77.3 29.32, 77.3 58.64, 77.3 77.3 M77.3 0 C77.3 17.8, 77.3 35.6, 77.3 77.3 M77.3 77.3 C52.9 77.3, 28.5 77.3, 0 77.3 M77.3 77.3 C57.87 77.3, 38.44 77.3, 0 77.3 M0 77.3 C0 61.15, 0 44.99, 0 0 M0 77.3 C0 46.72, 0 16.13, 0 0" stroke="#868e96" stroke-width="4" fill="none"></path></g><g transform="translate(185.4454345703125 271.4124816894531) rotate(0 18.75 9.600000000000023)"><text x="18.75" y="0" font-family="sans-serif, Segoe UI Emoji" font-size="16px" fill="#1e1e1e" text-anchor="middle" style="white-space: pre;" direction="ltr" dominant-baseline="text-before-edge">LEFT</text></g><g stroke-linecap="round" transform="translate(398.8594055175781 242.36080932617188) rotate(0 38.65167236328125 38.65167236328125)"><path d="M0 0 C16.97 0, 33.94 0, 77.3 0 M0 0 C15.74 0, 31.47 0, 77.3 0 M77.3 0 C77.3 18.46, 77.3 36.93, 77.3 77.3 M77.3 0 C77.3 18.55, 77.3 37.1, 77.3 77.3 M77.3 77.3 C61.52 77.3, 45.75 77.3, 0 77.3 M77.3 77.3 C58.31 77.3, 39.31 77.3, 0 77.3 M0 77.3 C0 47.3, 0 17.29, 0 0 M0 77.3 C0 48.7, 0 20.1, 0 0" stroke="#868e96" stroke-width="4" fill="none"></path></g><g stroke-linecap="round" transform="translate(321.0875244140625 241.95334402299204) rotate(0 38.65167236328125 38.65167236328125)"><path d="M0 0 L77.3 0 L77.3 77.3 L0 77.3" stroke="none" stroke-width="0" fill="#ffec99"></path><path d="M0 0 C30.32 0, 60.63 0, 77.3 0 M0 0 C16.38 0, 32.75 0, 77.3 0 M77.3 0 C77.3 30.87, 77.3 61.74, 77.3 77.3 M77.3 0 C77.3 28.25, 77.3 56.49, 77.3 77.3 M77.3 77.3 C60.37 77.3, 43.45 77.3, 0 77.3 M77.3 77.3 C53.81 77.3, 30.31 77.3, 0 77.3 M0 77.3 C0 48.17, 0 19.04, 0 0 M0 77.3 C0 53.01, 0 28.71, 0 0" stroke="#868e96" stroke-width="4" fill="none"></path></g><g transform="translate(336.30169677734375 271.00501638627327) rotate(0 23.4375 9.600000000000023)"><text x="23.4375" y="0" font-family="sans-serif, Segoe UI Emoji" font-size="16px" fill="#1e1e1e" text-anchor="middle" style="white-space: pre;" direction="ltr" dominant-baseline="text-before-edge">RIGHT</text></g><g stroke-linecap="round" transform="translate(10 319.69351400606536) rotate(0 38.65167236328125 38.65167236328125)"><path d="M0 0 C23.13 0, 46.27 0, 77.3 0 M0 0 C16.67 0, 33.33 0, 77.3 0 M77.3 0 C77.3 20.04, 77.3 40.08, 77.3 77.3 M77.3 0 C77.3 30.63, 77.3 61.26, 77.3 77.3 M77.3 77.3 C55.96 77.3, 34.61 77.3, 0 77.3 M77.3 77.3 C48.87 77.3, 20.44 77.3, 0 77.3 M0 77.3 C0 50.37, 0 23.44, 0 0 M0 77.3 C0 61.67, 0 46.04, 0 0" stroke="#868e96" stroke-width="4" fill="none"></path></g><g stroke-linecap="round" transform="translate(476.63128662109375 319.69351400606536) rotate(0 38.65167236328125 38.65167236328125)"><path d="M0 0 C26.01 0, 52.02 0, 77.3 0 M0 0 C22.5 0, 44.99 0, 77.3 0 M77.3 0 C77.3 18.92, 77.3 37.84, 77.3 77.3 M77.3 0 C77.3 18.5, 77.3 37.01, 77.3 77.3 M77.3 77.3 C59.58 77.3, 41.86 77.3, 0 77.3 M77.3 77.3 C51.6 77.3, 25.9 77.3, 0 77.3 M0 77.3 C0 59.67, 0 42.04, 0 0 M0 77.3 C0 57.54, 0 37.77, 0 0" stroke="#868e96" stroke-width="4" fill="none"></path></g><g stroke-linecap="round" transform="translate(243.31564331054688 319.69351400606536) rotate(0 38.65167236328125 38.65167236328125)"><path d="M0 0 L77.3 0 L77.3 77.3 L0 77.3" stroke="none" stroke-width="0" fill="#ffec99"></path><path d="M0 0 C21.56 0, 43.12 0, 77.3 0 M0 0 C21.34 0, 42.68 0, 77.3 0 M77.3 0 C77.3 28.3, 77.3 56.6, 77.3 77.3 M77.3 0 C77.3 28.48, 77.3 56.96, 77.3 77.3 M77.3 77.3 C46.94 77.3, 16.57 77.3, 0 77.3 M77.3 77.3 C48.33 77.3, 19.36 77.3, 0 77.3 M0 77.3 C0 48.86, 0 20.41, 0 0 M0 77.3 C0 49.26, 0 21.23, 0 0" stroke="#868e96" stroke-width="4" fill="none"></path></g><g transform="translate(263.2173156738281 348.7451863693466) rotate(0 18.75 9.600000000000023)"><text x="18.75" y="0" font-family="sans-serif, Segoe UI Emoji" font-size="16px" fill="#1e1e1e" text-anchor="middle" style="white-space: pre;" direction="ltr" dominant-baseline="text-before-edge">DOWN</text></g><g stroke-linecap="round" transform="translate(87.77188110351562 319.69351400606536) rotate(0 38.65167236328125 38.65167236328125)"><path d="M0 0 C28.18 0, 56.36 0, 77.3 0 M0 0 C27.62 0, 55.24 0, 77.3 0 M77.3 0 C77.3 23.97, 77.3 47.93, 77.3 77.3 M77.3 0 C77.3 20.9, 77.3 41.81, 77.3 77.3 M77.3 77.3 C59.64 77.3, 41.97 77.3, 0 77.3 M77.3 77.3 C53.54 77.3, 29.79 77.3, 0 77.3 M0 77.3 C0 56.86, 0 36.43, 0 0 M0 77.3 C0 61.35, 0 45.4, 0 0" stroke="#868e96" stroke-width="4" fill="none"></path></g><g stroke-linecap="round" transform="translate(165.54376220703125 319.69351400606536) rotate(0 38.65167236328125 38.65167236328125)"><path d="M0 0 C16.06 0, 32.12 0, 77.3 0 M0 0 C17.25 0, 34.49 0, 77.3 0 M77.3 0 C77.3 30.16, 77.3 60.32, 77.3 77.3 M77.3 0 C77.3 24.11, 77.3 48.22, 77.3 77.3 M77.3 77.3 C53.87 77.3, 30.44 77.3, 0 77.3 M77.3 77.3 C48.13 77.3, 18.95 77.3, 0 77.3 M0 77.3 C0 49.8, 0 22.31, 0 0 M0 77.3 C0 58.24, 0 39.18, 0 0" stroke="#868e96" stroke-width="4" fill="none"></path></g><g stroke-linecap="round" transform="translate(398.8594055175781 319.69351400606536) rotate(0 38.65167236328125 38.65167236328125)"><path d="M0 0 C18.85 0, 37.7 0, 77.3 0 M0 0 C19.35 0, 38.7 0, 77.3 0 M77.3 0 C77.3 16.13, 77.3 32.25, 77.3 77.3 M77.3 0 C77.3 22.31, 77.3 44.62, 77.3 77.3 M77.3 77.3 C55.62 77.3, 33.94 77.3, 0 77.3 M77.3 77.3 C46.6 77.3, 15.89 77.3, 0 77.3 M0 77.3 C0 56.86, 0 36.41, 0 0 M0 77.3 C0 57.2, 0 37.09, 0 0" stroke="#868e96" stroke-width="4" fill="none"></path></g><g stroke-linecap="round" transform="translate(321.0875244140625 319.69351400606536) rotate(0 38.65167236328125 38.65167236328125)"><path d="M0 0 C17.57 0, 35.14 0, 77.3 0 M0 0 C23.6 0, 47.2 0, 77.3 0 M77.3 0 C77.3 19.46, 77.3 38.92, 77.3 77.3 M77.3 0 C77.3 24.22, 77.3 48.45, 77.3 77.3 M77.3 77.3 C48.51 77.3, 19.71 77.3, 0 77.3 M77.3 77.3 C59.38 77.3, 41.45 77.3, 0 77.3 M0 77.3 C0 52.42, 0 27.54, 0 0 M0 77.3 C0 48.64, 0 19.98, 0 0" stroke="#868e96" stroke-width="4" fill="none"></path></g><g stroke-linecap="round" transform="translate(10 396.8607675515923) rotate(0 38.65167236328125 38.65167236328125)"><path d="M0 0 C25.98 0, 51.97 0, 77.3 0 M0 0 C26.9 0, 53.8 0, 77.3 0 M77.3 0 C77.3 28.2, 77.3 56.39, 77.3 77.3 M77.3 0 C77.3 23.68, 77.3 47.37, 77.3 77.3 M77.3 77.3 C60.18 77.3, 43.05 77.3, 0 77.3 M77.3 77.3 C47.03 77.3, 16.75 77.3, 0 77.3 M0 77.3 C0 53.51, 0 29.72, 0 0 M0 77.3 C0 56.95, 0 36.6, 0 0" stroke="#868e96" stroke-width="4" fill="none"></path></g><g stroke-linecap="round" transform="translate(476.63128662109375 396.8607675515923) rotate(0 38.65167236328125 38.65167236328125)"><path d="M0 0 C19.1 0, 38.19 0, 77.3 0 M0 0 C25.69 0, 51.38 0, 77.3 0 M77.3 0 C77.3 17.94, 77.3 35.88, 77.3 77.3 M77.3 0 C77.3 23.9, 77.3 47.8, 77.3 77.3 M77.3 77.3 C46.5 77.3, 15.71 77.3, 0 77.3 M77.3 77.3 C61.47 77.3, 45.65 77.3, 0 77.3 M0 77.3 C0 46.91, 0 16.51, 0 0 M0 77.3 C0 55.2, 0 33.1, 0 0" stroke="#868e96" stroke-width="4" fill="none"></path></g><g stroke-linecap="round" transform="translate(243.31564331054688 396.8607675515923) rotate(0 38.65167236328125 38.65167236328125)"><path d="M0 0 C20.96 0, 41.93 0, 77.3 0 M0 0 C16.03 0, 32.05 0, 77.3 0 M77.3 0 C77.3 16.98, 77.3 33.97, 77.3 77.3 M77.3 0 C77.3 24.59, 77.3 49.19, 77.3 77.3 M77.3 77.3 C56.8 77.3, 36.29 77.3, 0 77.3 M77.3 77.3 C51.3 77.3, 25.31 77.3, 0 77.3 M0 77.3 C0 59.34, 0 41.38, 0 0 M0 77.3 C0 53.76, 0 30.21, 0 0" stroke="#868e96" stroke-width="4" fill="none"></path></g><g stroke-linecap="round" transform="translate(87.77188110351562 396.8607675515923) rotate(0 38.65167236328125 38.65167236328125)"><path d="M0 0 C28.81 0, 57.61 0, 77.3 0 M0 0 C18.49 0, 36.98 0, 77.3 0 M77.3 0 C77.3 19.69, 77.3 39.38, 77.3 77.3 M77.3 0 C77.3 24.32, 77.3 48.63, 77.3 77.3 M77.3 77.3 C53.64 77.3, 29.98 77.3, 0 77.3 M77.3 77.3 C47.25 77.3, 17.19 77.3, 0 77.3 M0 77.3 C0 57.24, 0 37.17, 0 0 M0 77.3 C0 58.02, 0 38.74, 0 0" stroke="#868e96" stroke-width="4" fill="none"></path></g><g stroke-linecap="round" transform="translate(165.54376220703125 396.8607675515923) rotate(0 38.65167236328125 38.65167236328125)"><path d="M0 0 C17.75 0, 35.5 0, 77.3 0 M0 0 C16.55 0, 33.11 0, 77.3 0 M77.3 0 C77.3 27.8, 77.3 55.61, 77.3 77.3 M77.3 0 C77.3 24.62, 77.3 49.24, 77.3 77.3 M77.3 77.3 C55.54 77.3, 33.78 77.3, 0 77.3 M77.3 77.3 C52.38 77.3, 27.46 77.3, 0 77.3 M0 77.3 C0 48.89, 0 20.48, 0 0 M0 77.3 C0 52.04, 0 26.78, 0 0" stroke="#868e96" stroke-width="4" fill="none"></path></g><g stroke-linecap="round" transform="translate(398.8594055175781 396.8607675515923) rotate(0 38.65167236328125 38.65167236328125)"><path d="M0 0 C29.26 0, 58.51 0, 77.3 0 M0 0 C30.52 0, 61.05 0, 77.3 0 M77.3 0 C77.3 30.65, 77.3 61.3, 77.3 77.3 M77.3 0 C77.3 26.68, 77.3 53.35, 77.3 77.3 M77.3 77.3 C48.49 77.3, 19.68 77.3, 0 77.3 M77.3 77.3 C61 77.3, 44.69 77.3, 0 77.3 M0 77.3 C0 57.94, 0 38.58, 0 0 M0 77.3 C0 48.26, 0 19.22, 0 0" stroke="#868e96" stroke-width="4" fill="none"></path></g><g stroke-linecap="round" transform="translate(321.0875244140625 396.8607675515923) rotate(0 38.65167236328125 38.65167236328125)"><path d="M0 0 C27.61 0, 55.21 0, 77.3 0 M0 0 C21.39 0, 42.77 0, 77.3 0 M77.3 0 C77.3 16.23, 77.3 32.47, 77.3 77.3 M77.3 0 C77.3 27.9, 77.3 55.8, 77.3 77.3 M77.3 77.3 C52.17 77.3, 27.03 77.3, 0 77.3 M77.3 77.3 C46.48 77.3, 15.67 77.3, 0 77.3 M0 77.3 C0 50.39, 0 23.48, 0 0 M0 77.3 C0 59.98, 0 42.66, 0 0" stroke="#868e96" stroke-width="4" fill="none"></path></g><g stroke-linecap="round" transform="translate(10.13006591796875 473.8742547449144) rotate(0 38.65167236328125 38.65167236328125)"><path d="M0 0 L77.3 0 L77.3 77.3 L0 77.3" stroke="none" stroke-width="0" fill="#a5d8ff"></path><path d="M0 0 C25.27 0, 50.54 0, 77.3 0 M0 0 C19.75 0, 39.49 0, 77.3 0 M77.3 0 C77.3 30.33, 77.3 60.67, 77.3 77.3 M77.3 0 C77.3 26.5, 77.3 53, 77.3 77.3 M77.3 77.3 C57.87 77.3, 38.44 77.3, 0 77.3 M77.3 77.3 C51.42 77.3, 25.53 77.3, 0 77.3 M0 77.3 C0 56.78, 0 36.25, 0 0 M0 77.3 C0 61.25, 0 45.2, 0 0" stroke="#868e96" stroke-width="4" fill="none"></path></g><g transform="translate(39.40673828125 502.92592710819565) rotate(0 9.375 9.600000000000023)"><text x="9.375" y="0" font-family="sans-serif, Segoe UI Emoji" font-size="16px" fill="#1e1e1e" text-anchor="middle" style="white-space: pre;" direction="ltr" dominant-baseline="text-before-edge">BL</text></g><g stroke-linecap="round" transform="translate(476.6434936523433 474.28126768436755) rotate(0 38.65167236328125 38.65167236328125)"><path d="M0 0 L77.3 0 L77.3 77.3 L0 77.3" stroke="none" stroke-width="0" fill="#a5d8ff"></path><path d="M0 0 C30.26 0, 60.52 0, 77.3 0 M0 0 C19.13 0, 38.25 0, 77.3 0 M77.3 0 C77.3 30.75, 77.3 61.51, 77.3 77.3 M77.3 0 C77.3 18.17, 77.3 36.34, 77.3 77.3 M77.3 77.3 C52.49 77.3, 27.67 77.3, 0 77.3 M77.3 77.3 C57.64 77.3, 37.98 77.3, 0 77.3 M0 77.3 C0 57.11, 0 36.92, 0 0 M0 77.3 C0 51.04, 0 24.78, 0 0" stroke="#868e96" stroke-width="4" fill="none"></path></g><g transform="translate(505.92016601562455 503.3329400476488) rotate(0 9.375 9.600000000000023)"><text x="9.375" y="0" font-family="sans-serif, Segoe UI Emoji" font-size="16px" fill="#1e1e1e" text-anchor="middle" style="white-space: pre;" direction="ltr" dominant-baseline="text-before-edge">BR</text></g><g stroke-linecap="round" transform="translate(243.59027099609352 473.8743157800707) rotate(0 38.65167236328125 38.65167236328125)"><path d="M0 0 L77.3 0 L77.3 77.3 L0 77.3" stroke="none" stroke-width="0" fill="#ffd43b"></path><path d="M0 0 C29.52 0, 59.05 0, 77.3 0 M0 0 C25.23 0, 50.47 0, 77.3 0 M77.3 0 C77.3 24.28, 77.3 48.56, 77.3 77.3 M77.3 0 C77.3 22.64, 77.3 45.27, 77.3 77.3 M77.3 77.3 C55.9 77.3, 34.5 77.3, 0 77.3 M77.3 77.3 C60.44 77.3, 43.58 77.3, 0 77.3 M0 77.3 C0 55.85, 0 34.39, 0 0 M0 77.3 C0 52.09, 0 26.87, 0 0" stroke="#868e96" stroke-width="4" fill="none"></path></g><g transform="translate(254.11694335937477 502.9259881433519) rotate(0 28.125 9.600000000000023)"><text x="28.125" y="0" font-family="sans-serif, Segoe UI Emoji" font-size="16px" fill="#1e1e1e" text-anchor="middle" style="white-space: pre;" direction="ltr" dominant-baseline="text-before-edge">BOTTOM</text></g><g stroke-linecap="round" transform="translate(88.22145589192701 473.8743157800707) rotate(0 38.65167236328125 38.65167236328125)"><path d="M0 0 C30.73 0, 61.46 0, 77.3 0 M0 0 C24.81 0, 49.62 0, 77.3 0 M77.3 0 C77.3 26.02, 77.3 52.05, 77.3 77.3 M77.3 0 C77.3 17.02, 77.3 34.05, 77.3 77.3 M77.3 77.3 C52.81 77.3, 28.33 77.3, 0 77.3 M77.3 77.3 C46.42 77.3, 15.55 77.3, 0 77.3 M0 77.3 C0 60.19, 0 43.08, 0 0 M0 77.3 C0 61.57, 0 45.85, 0 0" stroke="#868e96" stroke-width="4" fill="none"></path></g><g stroke-linecap="round" transform="translate(165.90586344401027 473.8743157800707) rotate(0 38.65167236328125 38.65167236328125)"><path d="M0 0 C15.56 0, 31.13 0, 77.3 0 M0 0 C24.05 0, 48.11 0, 77.3 0 M77.3 0 C77.3 18.83, 77.3 37.66, 77.3 77.3 M77.3 0 C77.3 27.38, 77.3 54.77, 77.3 77.3 M77.3 77.3 C51 77.3, 24.69 77.3, 0 77.3 M77.3 77.3 C47.46 77.3, 17.62 77.3, 0 77.3 M0 77.3 C0 60.33, 0 43.37, 0 0 M0 77.3 C0 61.57, 0 45.83, 0 0" stroke="#868e96" stroke-width="4" fill="none"></path></g><g stroke-linecap="round" transform="translate(321.2746785481768 473.8743157800707) rotate(0 38.65167236328125 38.65167236328125)"><path d="M0 0 C29.1 0, 58.21 0, 77.3 0 M0 0 C28.82 0, 57.64 0, 77.3 0 M77.3 0 C77.3 27.2, 77.3 54.41, 77.3 77.3 M77.3 0 C77.3 16.13, 77.3 32.27, 77.3 77.3 M77.3 77.3 C53.78 77.3, 30.26 77.3, 0 77.3 M77.3 77.3 C52.29 77.3, 27.28 77.3, 0 77.3 M0 77.3 C0 48.29, 0 19.28, 0 0 M0 77.3 C0 54.29, 0 31.28, 0 0" stroke="#868e96" stroke-width="4" fill="none"></path></g><g stroke-linecap="round" transform="translate(398.95908610026004 473.8743157800707) rotate(0 38.65167236328125 38.65167236328125)"><path d="M0 0 C21.84 0, 43.68 0, 77.3 0 M0 0 C24.81 0, 49.61 0, 77.3 0 M77.3 0 C77.3 21.15, 77.3 42.3, 77.3 77.3 M77.3 0 C77.3 16.85, 77.3 33.69, 77.3 77.3 M77.3 77.3 C47.95 77.3, 18.6 77.3, 0 77.3 M77.3 77.3 C57.26 77.3, 37.21 77.3, 0 77.3 M0 77.3 C0 52.21, 0 27.12, 0 0 M0 77.3 C0 51.01, 0 24.72, 0 0" stroke="#868e96" stroke-width="4" fill="none"></path></g></svg>